<svg width="16" height="16" viewBox="0 0 16 16" fill="none" xmlns="http://www.w3.org/2000/svg">
<path d="M16 0H0V16H16V0Z" fill="#61A8DE"/>
<path d="M12.5984 3.53188L1.89902 7.70132C1.55247 7.83639 1.57346 8.3337 1.9302 8.43902L4.64903 9.24188L5.6637 12.4615C5.76969 12.7978 6.19587 12.8998 6.44258 12.6479L7.84829 11.2126L10.6064 13.2371C10.9439 13.4849 11.4246 13.3008 11.5103 12.891L13.3371 4.15741C13.4265 3.72961 13.0056 3.37319 12.5984 3.53188ZM11.257 5.47008L6.28719 9.86488C6.23765 9.9087 6.20612 9.96933 6.19875 10.0351L6.00741 11.736C6.00116 11.7915 5.92354 11.7988 5.90697 11.7455L5.11973 9.20881C5.08367 9.09267 5.13068 8.96684 5.23401 8.90277L11.1028 5.26287C11.2378 5.1791 11.376 5.36489 11.257 5.47008Z" fill="white"/>
</svg>
