<svg width="35" height="30" viewBox="0 0 35 30" fill="none" xmlns="http://www.w3.org/2000/svg">
<path d="M29.75 30V26.4706H22.75V22.9412H29.75V19.4118L35 24.7059L29.75 30ZM14 0C15.8565 0 17.637 0.743695 18.9497 2.06748C20.2625 3.39127 21 5.18671 21 7.05882C21 8.93094 20.2625 10.7264 18.9497 12.0502C17.637 13.374 15.8565 14.1176 14 14.1176C12.1435 14.1176 10.363 13.374 9.05025 12.0502C7.7375 10.7264 7 8.93094 7 7.05882C7 5.18671 7.7375 3.39127 9.05025 2.06748C10.363 0.743695 12.1435 0 14 0ZM14 17.6471C16.0125 17.6471 17.9375 17.8588 19.67 18.2471C18.305 20.0294 17.5 22.2706 17.5 24.7059C17.5 25.9412 17.71 27.1235 18.095 28.2353H0V24.7059C0 20.8059 6.265 17.6471 14 17.6471Z" fill="white"/>
</svg>
