<svg width="35" height="30" viewBox="0 0 35 30" fill="none" xmlns="http://www.w3.org/2000/svg">
<path d="M32.4872 15.4545L35 18.0182L23.2795 30L17.0513 23.6364L19.5641 21.0727L23.2795 24.8545L32.4872 15.4545ZM12.5641 23.6364L17.9487 29.0909H0V25.4545C0 21.4364 6.42564 18.1818 14.359 18.1818L17.7513 18.3818L12.5641 23.6364ZM14.359 0C16.2631 0 18.0892 0.766231 19.4356 2.13013C20.7821 3.49403 21.5385 5.34388 21.5385 7.27273C21.5385 9.20157 20.7821 11.0514 19.4356 12.4153C18.0892 13.7792 16.2631 14.5455 14.359 14.5455C12.4549 14.5455 10.6287 13.7792 9.28231 12.4153C7.9359 11.0514 7.17949 9.20157 7.17949 7.27273C7.17949 5.34388 7.9359 3.49403 9.28231 2.13013C10.6287 0.766231 12.4549 0 14.359 0Z" fill="white"/>
</svg>
